<svg width="318" height="63" viewBox="0 0 318 63" fill="none" xmlns="http://www.w3.org/2000/svg">
<path d="M34.5002 17.0679L24.3641 27.2145L34.5002 37.3612L44.6362 27.2145L34.5002 17.0679Z" fill="#757171"/>
<path fill-rule="evenodd" clip-rule="evenodd" d="M13 8.08382C13 6.18112 13.7551 4.35634 15.0991 3.01093C16.4431 1.66551 18.2659 0.909668 20.1667 0.909668H48.8333C50.7341 0.909668 52.5569 1.66551 53.9009 3.01093C55.2449 4.35634 56 6.18112 56 8.08382V46.346C56 48.2487 55.2449 50.0734 53.9009 51.4189C52.5569 52.7643 50.7341 53.5201 48.8333 53.5201H20.1667C18.2659 53.5201 16.4431 52.7643 15.0991 51.4189C13.7551 50.0734 13 48.2487 13 46.346V8.08382ZM20.1667 5.69244H48.8333C49.4669 5.69244 50.0745 5.94438 50.5225 6.39286C50.9705 6.84133 51.2222 7.44959 51.2222 8.08382V46.346C51.2222 46.9802 50.9705 47.5885 50.5225 48.0369C50.0745 48.4854 49.4669 48.7373 48.8333 48.7373H20.1667C19.5331 48.7373 18.9255 48.4854 18.4775 48.0369C18.0295 47.5885 17.7778 46.9802 17.7778 46.346V8.08382C17.7778 7.44959 18.0295 6.84133 18.4775 6.39286C18.9255 5.94438 19.5331 5.69244 20.1667 5.69244Z" fill="#757171"/>
<line x1="2.25" y1="60.75" x2="315.75" y2="60.75" stroke="#757171" stroke-width="4.5" stroke-linecap="round"/>
<path d="M97.675 26.53V35.755H102.175V26.53H97.675ZM92.005 33.46V37.69H108.25V33.46H92.005ZM89.395 25.09V46.96H94.435V29.32H108.115V25.09H89.395ZM105.595 25.09V41.74C105.595 42.235 105.415 42.415 104.83 42.415C104.29 42.415 102.31 42.415 100.645 42.325C101.275 43.63 101.905 45.61 102.085 47.005C105.01 47.005 107.17 46.96 108.745 46.24C110.32 45.475 110.77 44.17 110.77 41.785V25.09H105.595ZM71.44 7.81C79.045 14.065 80.305 20.86 80.305 29.32C80.305 34.945 79.9 39.715 78.91 41.02C78.55 41.515 78.1 41.785 77.425 41.875C76.435 41.965 74.77 42.01 72.43 41.83C73.375 43.36 73.87 45.25 73.87 47.005C76.12 47.095 78.1 47.05 79.9 46.6C81.07 46.33 82.06 45.745 82.825 44.755C84.895 41.875 85.39 35.8 85.39 29.41C85.39 20.5 84.22 12.175 75.22 4.93L71.44 7.81ZM80.665 21.175C78.64 25.225 74.5 29.86 70.81 32.155C72.115 33.145 73.6 34.9 74.455 36.16C78.145 33.19 82.375 27.97 84.625 23.56L80.665 21.175ZM82.375 5.155C79.855 10.015 75.49 15.325 70.855 18.565C72.025 19.42 73.78 21.04 74.59 22.075C79.36 18.475 83.995 13.12 87.145 7.54L82.375 5.155ZM96.82 4.795V21.31H102.355V4.795H96.82ZM87.775 7.765V11.725H111.76V7.765H87.775ZM88.63 13.39V17.17H110.815V13.39H88.63ZM86.2 19.015V23.29H113.245V19.015H86.2ZM144.925 26.53V35.755H149.425V26.53H144.925ZM139.255 33.46V37.69H155.5V33.46H139.255ZM136.645 25.09V46.96H141.685V29.32H155.365V25.09H136.645ZM152.845 25.09V41.74C152.845 42.235 152.665 42.415 152.08 42.415C151.54 42.415 149.56 42.415 147.895 42.325C148.525 43.63 149.155 45.61 149.335 47.005C152.26 47.005 154.42 46.96 155.995 46.24C157.57 45.475 158.02 44.17 158.02 41.785V25.09H152.845ZM118.69 7.81C126.295 14.065 127.555 20.86 127.555 29.32C127.555 34.945 127.15 39.715 126.16 41.02C125.8 41.515 125.35 41.785 124.675 41.875C123.685 41.965 122.02 42.01 119.68 41.83C120.625 43.36 121.12 45.25 121.12 47.005C123.37 47.095 125.35 47.05 127.15 46.6C128.32 46.33 129.31 45.745 130.075 44.755C132.145 41.875 132.64 35.8 132.64 29.41C132.64 20.5 131.47 12.175 122.47 4.93L118.69 7.81ZM127.915 21.175C125.89 25.225 121.75 29.86 118.06 32.155C119.365 33.145 120.85 34.9 121.705 36.16C125.395 33.19 129.625 27.97 131.875 23.56L127.915 21.175ZM129.625 5.155C127.105 10.015 122.74 15.325 118.105 18.565C119.275 19.42 121.03 21.04 121.84 22.075C126.61 18.475 131.245 13.12 134.395 7.54L129.625 5.155ZM144.07 4.795V21.31H149.605V4.795H144.07ZM135.025 7.765V11.725H159.01V7.765H135.025ZM135.88 13.39V17.17H158.065V13.39H135.88ZM133.45 19.015V23.29H160.495V19.015H133.45ZM186.19 17.35H200.32V20.185H186.19V17.35ZM186.19 10.78H200.32V13.57H186.19V10.78ZM181.195 6.73V24.235H205.54V6.73H181.195ZM178.945 26.845V47.095H184.075V31.345H204.865V26.845H178.945ZM202.21 26.845V42.01C202.21 42.595 202.03 42.73 201.355 42.73C200.77 42.775 198.475 42.82 196.495 42.685C197.125 43.945 197.755 45.79 197.935 47.095C201.175 47.14 203.47 47.05 205.09 46.375C206.755 45.655 207.205 44.44 207.205 42.1V26.845H202.21ZM190.78 8.395V38.275L195.505 37.735V8.395H190.78ZM184.66 36.745L185.605 41.29C189.79 40.705 195.1 39.94 200.23 39.175L200.05 35.17C194.38 35.8 188.575 36.43 184.66 36.745ZM196.72 33.1C197.98 35.755 199.24 39.265 199.645 41.425L202.975 40.255C202.48 38.095 201.175 34.675 199.825 32.11L196.72 33.1ZM175.3 4.975C173.095 11.41 169.27 17.8 165.265 21.895C166.165 23.2 167.65 26.17 168.145 27.475C172.96 22.3 177.55 14.2 180.43 6.55L175.3 4.975ZM170.8 17.44V47.05H175.975V12.355L175.93 12.31L170.8 17.44ZM214.36 24.01V28.78H254.23V24.01H214.36ZM234.52 32.155V36.79H251.35V32.155H234.52ZM232 26.44V43.09H237.445V26.44H232ZM225.025 33.64L220.57 35.08C224.26 44.485 230.425 46.33 240.775 46.33H253.645C253.915 44.755 254.725 42.37 255.49 41.2C252.25 41.29 243.565 41.335 241.09 41.29C233.215 41.245 227.5 40.21 225.025 33.64ZM221.11 29.725C220.075 35.755 217.33 40.525 212.74 43.36C213.91 44.17 215.98 46.15 216.79 47.14C221.785 43.585 225.025 37.915 226.51 30.49L221.11 29.725ZM223.765 15.955H244.42V18.205H223.765V15.955ZM223.765 10.15H244.42V12.4H223.765V10.15ZM218.545 6.325V22.03H249.91V6.325H218.545ZM281.635 22.345V27.16H300.85V22.345H281.635ZM281.635 30.985V35.8H300.85V30.985H281.635ZM281.59 39.895V44.89H302.65V39.895H281.59ZM289.51 15.28V42.55H294.55V15.28H289.51ZM292.705 5.38C291.94 8.35 290.365 12.31 289.015 14.92L293.47 16.225C294.91 13.795 296.755 10.105 298.33 6.64L292.705 5.38ZM284.38 13.615H282.31L279.295 16.675V47.095H284.38V18.475H301.84V13.615H284.38ZM283.03 4.705C281.5 9.97 278.215 16.81 274.435 20.905C275.38 21.94 276.82 24.01 277.585 25.225C282.13 20.32 285.955 12.85 288.385 6.19L283.03 4.705ZM262.465 18.61V22.66H276.055V18.61H262.465ZM262.6 6.19V10.285H275.92V6.19H262.6ZM262.465 24.73V28.825H276.055V24.73H262.465ZM260.305 12.265V16.54H277.54V12.265H260.305ZM264.805 30.985V35.26H271.51V40.39H264.805V44.665H276.1V30.985H264.805ZM262.375 30.985V46.465H266.92V30.985H262.375Z" fill="#757171"/>
</svg>
