<svg width="306" height="63" viewBox="0 0 306 63" fill="none" xmlns="http://www.w3.org/2000/svg">
<path d="M100.68 8.8C103.11 11.005 105.945 14.155 107.115 16.315L111.48 13.255C110.13 11.14 107.205 8.125 104.73 6.01L100.68 8.8ZM71.205 17.575V22.705H111.84V17.575H71.205ZM70.35 30.31L71.7 35.755C77.505 34.585 85.335 33.01 92.625 31.48L92.22 26.575C84.345 28.015 75.795 29.5 70.35 30.31ZM79.755 10.33V40.66C79.755 41.425 79.485 41.65 78.675 41.65C77.865 41.695 75.255 41.695 72.69 41.56C73.5 43.09 74.4 45.52 74.625 47.05C78.315 47.05 80.97 46.87 82.77 46.015C84.615 45.16 85.2 43.675 85.2 40.75V10.33H79.755ZM88.98 5.065C84.345 6.64 77.325 8.035 70.98 8.89C71.61 10.105 72.285 12.13 72.555 13.39C79.08 12.67 86.775 11.455 92.625 9.655L88.98 5.065ZM93.39 5.155C93.525 25.36 97.035 47.23 106.35 47.23C110.445 47.23 112.155 45.25 113.01 37.285C111.57 36.7 109.725 35.44 108.6 34.18C108.33 39.535 107.835 41.74 106.89 41.74C102.795 41.74 98.745 23.29 99.06 5.155H93.39ZM105.63 24.19C101.625 31.615 94.29 37.735 86.595 41.245C87.945 42.46 89.43 44.26 90.24 45.61C98.385 41.29 105.72 34.585 110.4 26.215L105.63 24.19ZM121.875 7V11.68H128.22V34.945H121.875V39.67H133.26V7H121.875ZM121.965 16.315V20.86H131.235V16.315H121.965ZM121.965 25.585V30.13H131.235V25.585H121.965ZM119.04 7V43.27H123.99V7H119.04ZM136.455 6.595V42.865L141.765 42.325V6.595H136.455ZM139.245 6.595V11.23H152.34V22.705H139.245V27.34H157.605V6.595H139.245ZM139.335 14.74V19.105H154.68V14.74H139.335ZM133.035 41.425L134.43 46.555C138.705 45.61 144.105 44.395 149.28 43.135L148.83 38.5C143.025 39.625 136.995 40.75 133.035 41.425ZM148.83 24.595L144.465 25.405C146.445 35.17 149.91 42.955 156.885 47.005C157.695 45.52 159.36 43.405 160.53 42.37C154.095 39.31 150.54 32.56 148.83 24.595ZM156.525 27.7C154.77 29.635 151.665 32.2 149.55 33.55L152.385 36.925C154.635 35.62 157.56 33.46 160.035 31.525L156.525 27.7ZM167.415 12.625V35.44H172.86V17.935H198.96V35.215H204.63V12.625H167.415ZM170.25 27.61V32.92H202.11V27.61H170.25ZM183.03 4.795V47.05H188.745V4.795H183.03ZM217.185 12.085V16.81H226.095V37.645H217.185V42.415H231V12.085H217.185ZM214.035 12.085V45.745H218.94V12.085H214.035ZM216.96 24.1V28.78H228.48V24.1H216.96ZM220.425 4.75C220.2 7.225 219.57 10.69 218.94 13.03L223.26 13.975C224.16 11.86 225.285 8.665 226.32 5.605L220.425 4.75ZM236.94 11.77V16.675H250.08V11.77H236.94ZM248.235 11.77V12.805C247.74 31.57 247.155 39.31 245.715 40.84C245.13 41.47 244.635 41.65 243.735 41.65C242.61 41.65 239.91 41.605 236.985 41.38C237.975 42.82 238.695 45.115 238.785 46.6C241.395 46.735 244.14 46.78 245.85 46.51C247.695 46.24 248.955 45.745 250.215 43.99C252.06 41.605 252.6 34.45 253.185 14.2C253.23 13.525 253.23 11.77 253.23 11.77H248.235ZM237.075 4.795C235.635 10.78 233.07 16.9 230.055 20.68C231.315 21.4 233.52 22.93 234.51 23.83C237.57 19.51 240.495 12.67 242.25 6.01L237.075 4.795ZM234.87 24.73C237.03 28.06 239.865 32.47 241.08 35.215L245.67 32.425C244.275 29.77 241.305 25.45 239.1 22.345L234.87 24.73ZM275.145 7.135V21.625C275.145 28.555 274.74 38.005 269.745 44.44C271.05 44.98 273.3 46.33 274.29 47.185C279.555 40.345 280.32 29.32 280.32 21.625V7.135H275.145ZM282.3 22.93V39.94C282.3 45.115 283.605 46.69 288.735 46.69C289.77 46.69 294.045 46.69 295.08 46.69C299.58 46.69 300.93 44.62 301.47 37.375C300.12 37.06 297.915 36.205 296.835 35.35C296.61 40.93 296.34 41.92 294.675 41.92C293.685 41.92 290.22 41.92 289.455 41.92C287.655 41.92 287.385 41.65 287.385 39.895V22.93H282.3ZM296.115 24.55C293.235 27.025 288.42 29.725 284.01 31.57C284.64 32.605 285.45 34.315 285.765 35.35C290.58 33.55 296.025 31.075 300.075 28.33L296.115 24.55ZM277.395 7.135V12.085H294.09V16.495H277.395V21.445H299.355V7.135H277.395ZM261.555 9.25C264.435 10.51 268.08 12.625 269.79 14.245L272.94 9.79C271.095 8.26 267.36 6.37 264.48 5.29L261.555 9.25ZM259.215 21.715C262.095 22.93 265.785 25 267.495 26.53L270.51 22.03C268.62 20.545 264.885 18.7 262.005 17.665L259.215 21.715ZM260.385 42.865L265.2 46.195C267.585 41.74 270.06 36.52 272.085 31.75L267.81 28.465C265.515 33.73 262.5 39.4 260.385 42.865Z" fill="#867F7F"/>
<path d="M35.5002 17.0679L25.3641 27.2145L35.5002 37.3612L45.6362 27.2145L35.5002 17.0679Z" fill="#867F7F"/>
<path fill-rule="evenodd" clip-rule="evenodd" d="M14 8.08382C14 6.18112 14.7551 4.35634 16.0991 3.01093C17.4431 1.66551 19.2659 0.909668 21.1667 0.909668H49.8333C51.7341 0.909668 53.5569 1.66551 54.9009 3.01093C56.2449 4.35634 57 6.18112 57 8.08382V46.346C57 48.2487 56.2449 50.0734 54.9009 51.4189C53.5569 52.7643 51.7341 53.5201 49.8333 53.5201H21.1667C19.2659 53.5201 17.4431 52.7643 16.0991 51.4189C14.7551 50.0734 14 48.2487 14 46.346V8.08382ZM21.1667 5.69244H49.8333C50.4669 5.69244 51.0745 5.94438 51.5225 6.39286C51.9705 6.84133 52.2222 7.44959 52.2222 8.08382V46.346C52.2222 46.9802 51.9705 47.5885 51.5225 48.0369C51.0745 48.4854 50.4669 48.7373 49.8333 48.7373H21.1667C20.5331 48.7373 19.9255 48.4854 19.4775 48.0369C19.0295 47.5885 18.7778 46.9802 18.7778 46.346V8.08382C18.7778 7.44959 19.0295 6.84133 19.4775 6.39286C19.9255 5.94438 20.5331 5.69244 21.1667 5.69244Z" fill="#867F7F"/>
<line x1="3.24261" y1="60.7426" x2="303.743" y2="59.7574" stroke="#867F7F" stroke-width="4.5" stroke-linecap="round"/>
</svg>
